<svg width="20" height="20" viewBox="0 0 20 20" fill="none" xmlns="http://www.w3.org/2000/svg">
<path fill-rule="evenodd" clip-rule="evenodd" d="M18.5122 19.013H1.48823C0.67223 19.013 0.0112305 18.434 0.0112305 17.72V2.28199C0.0112305 1.56899 0.67223 0.98999 1.48823 0.98999H18.5122C19.3272 0.98999 19.9882 1.56899 19.9882 2.28199V17.72C19.9882 18.434 19.3272 19.013 18.5122 19.013ZM3.47323 16.044H6.41523V7.90699H3.47323V16.044ZM4.96423 3.98499C3.95723 3.98499 3.30023 4.59199 3.30023 5.39099C3.30023 6.17099 3.93823 6.79699 4.92523 6.79699H4.94423C5.97023 6.79699 6.60823 6.17099 6.60823 5.39099C6.59023 4.59199 5.97023 3.98499 4.96423 3.98499ZM17.0232 11.379C17.0232 8.87899 15.5712 7.71599 13.6362 7.71599C12.0742 7.71599 11.3762 8.50499 10.9852 9.05999V7.90699H8.04323C8.08223 8.67099 8.04323 16.044 8.04323 16.044H10.9852V11.5C10.9852 11.258 11.0042 11.014 11.0822 10.841C11.2942 10.355 11.7792 9.85199 12.5912 9.85199C13.6562 9.85199 14.0812 10.598 14.0812 11.692V16.044H17.0232V11.379ZM10.9652 9.08699C10.9712 9.07799 10.9792 9.06899 10.9852 9.05999V9.08699H10.9652Z" fill="white"/>
</svg>
